<?xml version="1.0" encoding="UTF-8" standalone="no"?>
<!DOCTYPE svg PUBLIC "-//W3C//DTD SVG 1.1//EN" "http://www.w3.org/Graphics/SVG/1.1/DTD/svg11.dtd">
<svg width="100%" height="100%" viewBox="0 0 827 1227" version="1.1" xmlns="http://www.w3.org/2000/svg" xmlns:xlink="http://www.w3.org/1999/xlink" xml:space="preserve" xmlns:serif="http://www.serif.com/" style="fill-rule:evenodd;clip-rule:evenodd;stroke-linejoin:round;stroke-miterlimit:2;">
    <g transform="matrix(1,0,0,1,-1183.778001,-1867.072367)">
        <g transform="matrix(0.804253,0,0,0.804253,562.895008,325.320169)">
            <path d="M1286,1917C1286,1917 1800,2624.7 1800,2928C1800,3211.684 1569.684,3442 1286,3442C1002.316,3442 772,3211.684 772,2928C772,2624.7 1286,1917 1286,1917Z" style="fill:none;"/>
            <clipPath id="_clip1">
                <path d="M1286,1917C1286,1917 1800,2624.7 1800,2928C1800,3211.684 1569.684,3442 1286,3442C1002.316,3442 772,3211.684 772,2928C772,2624.7 1286,1917 1286,1917Z"/>
            </clipPath>
            <g clip-path="url(#_clip1)">
                <g transform="matrix(1.24339,0,0,1.24339,-699.898292,-404.5)">
                    <g transform="matrix(1.256904,0,0,0.873932,-398.650286,311.756898)">
                        <path d="M1162,2400L1364.164,2023L1578,1695L1818.001,2083L1993,2400L2076,2616L1973,2757L1258,2717L1076,2648L1162,2400Z" style="fill:rgb(147,111,67);"/>
                    </g>
                    <g transform="matrix(0.940762,0,0,0.923489,102.43077,195.040713)">
                        <path d="M1082,2590L2071,2591L2085,2716L2067,2858L1960.566,3032.27L1829,3150L1709,3197L1554,3219L1399,3188L1251.46,3089.296L1149,2988L1088,2854L1081.407,2732.513L1082,2590Z" style="fill:rgb(1,123,134);"/>
                    </g>
                </g>
            </g>
        </g>
        <g>
            <g transform="matrix(1,0,0,1,-658.11956,-19.685039)">
                <g transform="matrix(458.333333,0,0,458.333333,2434.849121,2814.880371)">
                </g>
                <text x="2077px" y="2814.88px" style="font-family:'GillSans', 'Gill Sans', sans-serif;font-size:458.333px;fill:white;">M</text>
            </g>
            <g transform="matrix(-0.966984,-0,0,-0.9011,3124.515672,4802.68246)">
                <path d="M1579.5,2459L1665,2575L1494,2575L1579.5,2459Z" style="fill:rgb(250,250,250);"/>
                <path d="M1579.5,2459L1665,2575L1494,2575L1579.5,2459ZM1579.5,2492.542L1534.059,2554.192L1624.941,2554.192L1579.5,2492.542Z" style="fill:rgb(250,250,250);"/>
            </g>
        </g>
    </g>
</svg>
