<?xml version="1.0" encoding="UTF-8" standalone="no"?><!DOCTYPE svg PUBLIC "-//W3C//DTD SVG 1.1//EN" "http://www.w3.org/Graphics/SVG/1.1/DTD/svg11.dtd"><svg width="100%" height="100%" viewBox="0 0 709 1052" version="1.1" xmlns="http://www.w3.org/2000/svg" xmlns:xlink="http://www.w3.org/1999/xlink" xml:space="preserve" xmlns:serif="http://www.serif.com/" style="fill-rule:evenodd;clip-rule:evenodd;stroke-linejoin:round;stroke-miterlimit:2;"><path d="M354.331,0c0,0 354.331,487.86 354.331,696.942c0,195.56 -158.77,354.331 -354.331,354.331c-195.56,0 -354.331,-158.77 -354.331,-354.331c0,-209.083 354.331,-696.942 354.331,-696.942Z" style="fill:none;"/><clipPath id="_clip1"><path d="M354.331,0c0,0 354.331,487.86 354.331,696.942c0,195.56 -158.77,354.331 -354.331,354.331c-195.56,0 -354.331,-158.77 -354.331,-354.331c0,-209.083 354.331,-696.942 354.331,-696.942Z"/></clipPath><g clip-path="url(#_clip1)"><g><path d="M-104.491,464.676l217.8,-282.405l230.376,-245.7l258.564,290.645l188.535,237.46l89.42,161.802l-110.967,105.621l-770.302,-29.963l-196.077,-51.687l92.652,-185.773Z" style="fill:#936f43;"/><path d="M-54.379,616.977l797.498,0.792l11.289,98.945l-14.515,112.402l-85.825,137.945l-106.091,93.191l-96.764,37.203l-124.987,17.414l-124.987,-24.538l-118.971,-78.13l-82.621,-80.182l-49.188,-106.069l-5.316,-96.164l0.478,-112.808Z" style="fill:#017b86;"/></g></g><g><g transform="matrix(458.333333,0,0,458.333333,534.711326,824.899169)"></g><text x="176.862px" y="824.899px" style="font-family:'GillSans-Light', 'Gill Sans', sans-serif;font-weight:300;font-size:458.333px;fill:#fff;">M</text><path d="M355.331,616.977l-47.244,-59.159l94.488,0l-47.244,59.159Z" style="fill:#fafafa;"/><path d="M355.331,616.977l-47.244,-59.159l94.488,0l-47.244,59.159Zm0,-30.047l8.275,-10.362l-16.55,0l8.275,10.362Z" style="fill:#fafafa;"/></g></svg>